<?xml version="1.0" encoding="UTF-8" standalone="no"?>
<svg
   viewBox="0 0 600 600"
   version="1.1"
   id="svg1"
   sodipodi:docname="bluesky.svg"
   inkscape:version="1.4.2 (f4327f4, 2025-05-13)"
   xmlns:inkscape="http://www.inkscape.org/namespaces/inkscape"
   xmlns:sodipodi="http://sodipodi.sourceforge.net/DTD/sodipodi-0.dtd"
   xmlns="http://www.w3.org/2000/svg"
   xmlns:svg="http://www.w3.org/2000/svg">
  <defs
     id="defs1" />
  <sodipodi:namedview
     id="namedview1"
     pagecolor="#ffffff"
     bordercolor="#000000"
     borderopacity="0.25"
     inkscape:showpageshadow="2"
     inkscape:pageopacity="0.0"
     inkscape:pagecheckerboard="0"
     inkscape:deskcolor="#d1d1d1"
     inkscape:zoom="0.59"
     inkscape:cx="265.25424"
     inkscape:cy="250"
     inkscape:window-width="1188"
     inkscape:window-height="981"
     inkscape:window-x="952"
     inkscape:window-y="0"
     inkscape:window-maximized="0"
     inkscape:current-layer="svg1" />
  <path
     d="M 135.72,74.538475 C 202.216,124.45947 273.74,225.67847 300,279.99847 c 26.262,-54.316 97.782,-155.54 164.28,-205.459995 47.98,-36.021 125.72,-63.892 125.72,24.795 0,17.711995 -10.155,148.789995 -16.111,170.069995 -20.703,73.984 -96.144,92.854 -163.25,81.433 117.3,19.964 147.14,86.092 82.697,152.22 -122.39,125.59 -175.91,-31.511 -189.63,-71.766 -2.514,-7.3797 -3.6904,-10.832 -3.7077,-7.8964 -0.0174,-2.9357 -1.1937,0.51669 -3.7077,7.8964 -13.714,40.255 -67.233,197.36 -189.63,71.766 -64.444,-66.128 -34.605,-132.26 82.697,-152.22 -67.108,11.421 -142.55,-7.4491 -163.25,-81.433 -5.9562,-21.282 -16.1110001,-152.36 -16.1110001,-170.069995 0,-88.687 77.7420001,-60.816 125.7200001,-24.795 z"
     fill="#000000"
     id="path1" />
</svg>
